
                <svg id="trend-chart" width="660" height="400" title="Stack Overflow Trends Chart" version="1.1" xmlns="http://www.w3.org/2000/svg"><g></g><g class="chart-area" transform="translate(100, 20)"><g transform="translate(0,300)" fill="none" font-size="10" font-family="sans-serif" text-anchor="middle"><path class="domain" stroke="#000" d="M0.5,6V0.5H410.5V6"></path><g class="tick" opacity="1" transform="translate(19.27121723996724,0)"><line stroke="#000" y2="6" x1="0.5" x2="0.5"></line><text fill="#000" y="9" x="0.5" dy="0.71em" style="font-size: 12px;">2009</text></g><g class="tick" opacity="1" transform="translate(65.23251945126945,0)"><line stroke="#000" y2="6" x1="0.5" x2="0.5"></line><text fill="#000" y="9" x="0.5" dy="0.71em" style="font-size: 12px;">2010</text></g><g class="tick" opacity="1" transform="translate(111.19382166257166,0)"><line stroke="#000" y2="6" x1="0.5" x2="0.5"></line><text fill="#000" y="9" x="0.5" dy="0.71em" style="font-size: 12px;">2011</text></g><g class="tick" opacity="1" transform="translate(157.15512387387386,0)"><line stroke="#000" y2="6" x1="0.5" x2="0.5"></line><text fill="#000" y="9" x="0.5" dy="0.71em" style="font-size: 12px;">2012</text></g><g class="tick" opacity="1" transform="translate(203.24234746109747,0)"><line stroke="#000" y2="6" x1="0.5" x2="0.5"></line><text fill="#000" y="9" x="0.5" dy="0.71em" style="font-size: 12px;">2013</text></g><g class="tick" opacity="1" transform="translate(249.20364967239968,0)"><line stroke="#000" y2="6" x1="0.5" x2="0.5"></line><text fill="#000" y="9" x="0.5" dy="0.71em" style="font-size: 12px;">2014</text></g><g class="tick" opacity="1" transform="translate(295.16495188370186,0)"><line stroke="#000" y2="6" x1="0.5" x2="0.5"></line><text fill="#000" y="9" x="0.5" dy="0.71em" style="font-size: 12px;">2015</text></g><g class="tick" opacity="1" transform="translate(341.1262540950041,0)"><line stroke="#000" y2="6" x1="0.5" x2="0.5"></line><text fill="#000" y="9" x="0.5" dy="0.71em" style="font-size: 12px;">2016</text></g><g class="tick" opacity="1" transform="translate(387.2134776822277,0)"><line stroke="#000" y2="6" x1="0.5" x2="0.5"></line><text fill="#000" y="9" x="0.5" dy="0.71em" style="font-size: 12px;">2017</text></g></g><g class="grid-lines" transform="translate(0,300)" fill="none" font-size="10" font-family="sans-serif" text-anchor="middle"><path class="domain" stroke="#000" d="M0.5,-300V0.5H410.5V-300"></path><g class="tick" opacity="1" transform="translate(19.27121723996724,0)"><line stroke="#000" y2="-300" x1="0.5" x2="0.5" style="stroke: #ccc; fill: none;"></line></g><g class="tick" opacity="1" transform="translate(65.23251945126945,0)"><line stroke="#000" y2="-300" x1="0.5" x2="0.5" style="stroke: #ccc; fill: none;"></line></g><g class="tick" opacity="1" transform="translate(111.19382166257166,0)"><line stroke="#000" y2="-300" x1="0.5" x2="0.5" style="stroke: #ccc; fill: none;"></line></g><g class="tick" opacity="1" transform="translate(157.15512387387386,0)"><line stroke="#000" y2="-300" x1="0.5" x2="0.5" style="stroke: #ccc; fill: none;"></line></g><g class="tick" opacity="1" transform="translate(203.24234746109747,0)"><line stroke="#000" y2="-300" x1="0.5" x2="0.5" style="stroke: #ccc; fill: none;"></line></g><g class="tick" opacity="1" transform="translate(249.20364967239968,0)"><line stroke="#000" y2="-300" x1="0.5" x2="0.5" style="stroke: #ccc; fill: none;"></line></g><g class="tick" opacity="1" transform="translate(295.16495188370186,0)"><line stroke="#000" y2="-300" x1="0.5" x2="0.5" style="stroke: #ccc; fill: none;"></line></g><g class="tick" opacity="1" transform="translate(341.1262540950041,0)"><line stroke="#000" y2="-300" x1="0.5" x2="0.5" style="stroke: #ccc; fill: none;"></line></g><g class="tick" opacity="1" transform="translate(387.2134776822277,0)"><line stroke="#000" y2="-300" x1="0.5" x2="0.5" style="stroke: #ccc; fill: none;"></line></g></g><text x="205" y="360" class="axis-label x-axis-label" style="text-anchor: middle; font-weight: bold;">Year</text><g fill="none" font-size="10" font-family="sans-serif" text-anchor="end"><path class="domain" stroke="#000" d="M-6,300.5H0.5V0.5H-6"></path><g class="tick" opacity="1" transform="translate(0,300)"><line stroke="#000" x2="-6" y1="0.5" y2="0.5"></line><text fill="#000" x="-9" y="0.5" dy="0.32em" style="font-size: 12px;">0.00%</text></g><g class="tick" opacity="1" transform="translate(0,275)"><line stroke="#000" x2="-6" y1="0.5" y2="0.5"></line><text fill="#000" x="-9" y="0.5" dy="0.32em" style="font-size: 12px;">0.05%</text></g><g class="tick" opacity="1" transform="translate(0,250)"><line stroke="#000" x2="-6" y1="0.5" y2="0.5"></line><text fill="#000" x="-9" y="0.5" dy="0.32em" style="font-size: 12px;">0.10%</text></g><g class="tick" opacity="1" transform="translate(0,225)"><line stroke="#000" x2="-6" y1="0.5" y2="0.5"></line><text fill="#000" x="-9" y="0.5" dy="0.32em" style="font-size: 12px;">0.15%</text></g><g class="tick" opacity="1" transform="translate(0,200)"><line stroke="#000" x2="-6" y1="0.5" y2="0.5"></line><text fill="#000" x="-9" y="0.5" dy="0.32em" style="font-size: 12px;">0.20%</text></g><g class="tick" opacity="1" transform="translate(0,175)"><line stroke="#000" x2="-6" y1="0.5" y2="0.5"></line><text fill="#000" x="-9" y="0.5" dy="0.32em" style="font-size: 12px;">0.25%</text></g><g class="tick" opacity="1" transform="translate(0,150)"><line stroke="#000" x2="-6" y1="0.5" y2="0.5"></line><text fill="#000" x="-9" y="0.5" dy="0.32em" style="font-size: 12px;">0.30%</text></g><g class="tick" opacity="1" transform="translate(0,125)"><line stroke="#000" x2="-6" y1="0.5" y2="0.5"></line><text fill="#000" x="-9" y="0.5" dy="0.32em" style="font-size: 12px;">0.35%</text></g><g class="tick" opacity="1" transform="translate(0,100)"><line stroke="#000" x2="-6" y1="0.5" y2="0.5"></line><text fill="#000" x="-9" y="0.5" dy="0.32em" style="font-size: 12px;">0.40%</text></g><g class="tick" opacity="1" transform="translate(0,75.00000000000003)"><line stroke="#000" x2="-6" y1="0.5" y2="0.5"></line><text fill="#000" x="-9" y="0.5" dy="0.32em" style="font-size: 12px;">0.45%</text></g><g class="tick" opacity="1" transform="translate(0,50)"><line stroke="#000" x2="-6" y1="0.5" y2="0.5"></line><text fill="#000" x="-9" y="0.5" dy="0.32em" style="font-size: 12px;">0.50%</text></g><g class="tick" opacity="1" transform="translate(0,25)"><line stroke="#000" x2="-6" y1="0.5" y2="0.5"></line><text fill="#000" x="-9" y="0.5" dy="0.32em" style="font-size: 12px;">0.55%</text></g><g class="tick" opacity="1" transform="translate(0,0)"><line stroke="#000" x2="-6" y1="0.5" y2="0.5"></line><text fill="#000" x="-9" y="0.5" dy="0.32em" style="font-size: 12px;">0.60%</text></g></g><g class="grid-lines" fill="none" font-size="10" font-family="sans-serif" text-anchor="end"><path class="domain" stroke="#000" d="M410,300.5H0.5V0.5H410"></path><g class="tick" opacity="1" transform="translate(0,300)"><line stroke="#000" x2="410" y1="0.5" y2="0.5" style="stroke: #ccc; fill: none;"></line></g><g class="tick" opacity="1" transform="translate(0,275)"><line stroke="#000" x2="410" y1="0.5" y2="0.5" style="stroke: #ccc; fill: none;"></line></g><g class="tick" opacity="1" transform="translate(0,250)"><line stroke="#000" x2="410" y1="0.5" y2="0.5" style="stroke: #ccc; fill: none;"></line></g><g class="tick" opacity="1" transform="translate(0,225)"><line stroke="#000" x2="410" y1="0.5" y2="0.5" style="stroke: #ccc; fill: none;"></line></g><g class="tick" opacity="1" transform="translate(0,200)"><line stroke="#000" x2="410" y1="0.5" y2="0.5" style="stroke: #ccc; fill: none;"></line></g><g class="tick" opacity="1" transform="translate(0,175)"><line stroke="#000" x2="410" y1="0.5" y2="0.5" style="stroke: #ccc; fill: none;"></line></g><g class="tick" opacity="1" transform="translate(0,150)"><line stroke="#000" x2="410" y1="0.5" y2="0.5" style="stroke: #ccc; fill: none;"></line></g><g class="tick" opacity="1" transform="translate(0,125)"><line stroke="#000" x2="410" y1="0.5" y2="0.5" style="stroke: #ccc; fill: none;"></line></g><g class="tick" opacity="1" transform="translate(0,100)"><line stroke="#000" x2="410" y1="0.5" y2="0.5" style="stroke: #ccc; fill: none;"></line></g><g class="tick" opacity="1" transform="translate(0,75.00000000000003)"><line stroke="#000" x2="410" y1="0.5" y2="0.5" style="stroke: #ccc; fill: none;"></line></g><g class="tick" opacity="1" transform="translate(0,50)"><line stroke="#000" x2="410" y1="0.5" y2="0.5" style="stroke: #ccc; fill: none;"></line></g><g class="tick" opacity="1" transform="translate(0,25)"><line stroke="#000" x2="410" y1="0.5" y2="0.5" style="stroke: #ccc; fill: none;"></line></g><g class="tick" opacity="1" transform="translate(0,0)"><line stroke="#000" x2="410" y1="0.5" y2="0.5" style="stroke: #ccc; fill: none;"></line></g></g><g class="lines"><path class="line" d="M3.9035626535626538,289.675L7.681203931203931,293.3L11.590013308763309,288.425L15.367654586404585,283.765L19.27121723996724,281.415L23.174779893529895,280.415L26.70057841932842,290.375L30.598894348894348,286.17L34.37653562653563,286.625L38.28009828009828,277.355L42.05773955773956,290.885L45.96130221130221,284.92L49.86486486486487,288.035L53.64250614250615,263.28L57.551315520065515,250.01L61.328956797706795,266.02L65.23251945126945,276.9L69.1360821048321,257.01L72.66188063063062,263.095L76.56019656019656,258.55L80.33783783783784,270.555L84.2414004914005,261.955L88.01904176904176,270.8L91.92260442260442,262.04L95.82616707616708,266.18L99.60380835380836,260.59000000000003L103.51261773136774,253.335L107.29025900900902,254.73L111.19382166257166,269.2L115.09738431613431,263.255L118.62318284193283,243.515L122.52149877149877,248.215L126.29914004914005,254.495L130.20270270270268,258.93L133.98034398034397,253.195L137.88390663390663,243.69L141.7874692874693,242.82999999999998L145.5651105651106,232.70999999999998L149.47391994266994,252.29L153.25156122031123,248.935L157.15512387387386,239.225L161.05868652743652,241.985L164.71040642915642,239.03L168.60872235872236,241.62L172.38636363636365,238.22500000000002L176.28992628992629,234.15L180.06756756756758,229.5L183.9711302211302,222.755L187.87469287469287,214.305L191.65233415233416,218.95L195.56114352989354,206.885L199.3387848075348,225.16L203.24234746109747,220.905L207.14591011466013,211.01L210.67170864045866,208.105L214.5700245700246,190.585L218.34766584766584,193.885L222.25122850122852,208.17000000000002L226.02886977886976,186.12L229.93243243243245,203.38L233.8359950859951,183.495L237.61363636363637,180.03L241.52244574119575,164.51500000000001L245.30008701883702,181.055L249.20364967239968,174.17000000000002L253.10721232596234,155.065L256.63301085176084,166.45L260.5313267813268,172.91500000000002L264.3089680589681,159.14499999999998L268.21253071253074,169.205L271.99017199017203,166.375L275.89373464373466,159.65500000000003L279.7972972972973,174.695L283.5749385749386,152.29L287.48374795249794,164.35500000000002L291.26138923013923,167L295.16495188370186,154.3L299.06851453726455,139.25000000000003L302.59431306306305,132.77000000000004L306.492628992629,145.775L310.27027027027026,134.71999999999997L314.17383292383295,142.91500000000002L317.95147420147424,136.87L321.8550368550369,148.815L325.7585995085995,153.315L329.5362407862408,142.00500000000002L333.44505016380015,116.25000000000003L337.22269144144144,134.38000000000002L341.1262540950041,114.84500000000003L345.02981674856676,104.65L348.68153665028666,104.47500000000002L352.57985257985257,95.435L356.35749385749386,121.70999999999998L360.2610565110565,96.21000000000001L364.0386977886978,81.715L367.9422604422604,103.81000000000003L371.8458230958231,99.41000000000005L375.62346437346434,97.41000000000003L379.53227375102375,87.25500000000002L383.30991502866505,92.595L387.2134776822277,96.48499999999999L391.1170403357903,63.504999999999995L394.64283886158887,57.42500000000001L398.5411547911548,45.78L402.3187960687961,65.91999999999999L406.2223587223587,59.494999999999976L410,51.065" data-legend="numpy" style="stroke: rgb(31, 119, 180); fill: none;"></path><path class="line" d="M3.9035626535626538,300L7.681203931203931,300L11.590013308763309,300L15.367654586404585,300L19.27121723996724,300L23.174779893529895,300L26.70057841932842,300L30.598894348894348,300L34.37653562653563,300L38.28009828009828,300L42.05773955773956,300L45.96130221130221,300L49.86486486486487,300L53.64250614250615,300L57.551315520065515,300L61.328956797706795,300L65.23251945126945,300L69.1360821048321,300L72.66188063063062,300L76.56019656019656,300L80.33783783783784,300L84.2414004914005,300L88.01904176904176,300L91.92260442260442,300L95.82616707616708,300L99.60380835380836,300L103.51261773136774,300L107.29025900900902,300L111.19382166257166,300L115.09738431613431,300L118.62318284193283,300L122.52149877149877,300L126.29914004914005,300L130.20270270270268,300L133.98034398034397,300L137.88390663390663,300L141.7874692874693,300L145.5651105651106,300L149.47391994266994,300L153.25156122031123,300L157.15512387387386,300L161.05868652743652,300L164.71040642915642,299.635L168.60872235872236,298.865L172.38636363636365,299.64L176.28992628992629,300L180.06756756756758,300L183.9711302211302,300L187.87469287469287,299.63L191.65233415233416,300L195.56114352989354,299.67L199.3387848075348,299.64L203.24234746109747,297.84L207.14591011466013,299.685L210.67170864045866,299.165L214.5700245700246,299.435L218.34766584766584,299.125L222.25122850122852,298.155L226.02886977886976,298.07L229.93243243243245,298.85L233.8359950859951,298.23L237.61363636363637,296.815L241.52244574119575,296.67L245.30008701883702,294.675L249.20364967239968,292.755L253.10721232596234,289.595L256.63301085176084,288.715L260.5313267813268,290.46L264.3089680589681,289.485L268.21253071253074,287.405L271.99017199017203,282.645L275.89373464373466,286.565L279.7972972972973,285L283.5749385749386,285.88L287.48374795249794,283.01L291.26138923013923,286.795L295.16495188370186,285.58L299.06851453726455,282.27L302.59431306306305,281.45L306.492628992629,285.56L310.27027027027026,280.495L314.17383292383295,280.985L317.95147420147424,284.715L321.8550368550369,284.885L325.7585995085995,282.115L329.5362407862408,277.695L333.44505016380015,279.13L337.22269144144144,282.705L341.1262540950041,279.76L345.02981674856676,275.615L348.68153665028666,278.925L352.57985257985257,276.665L356.35749385749386,273.98L360.2610565110565,276.975L364.0386977886978,272.405L367.9422604422604,276.755L371.8458230958231,273.46L375.62346437346434,276.08L379.53227375102375,276.85L383.30991502866505,278.52L387.2134776822277,277.035L391.1170403357903,281.13L394.64283886158887,278.855L398.5411547911548,280.775L402.3187960687961,279.36L406.2223587223587,275.88L410,277.64" data-legend="julia-lang" style="stroke: rgb(255, 127, 14); fill: none;"></path><path class="line" d="M3.9035626535626538,289.675L7.681203931203931,289.95L11.590013308763309,284.565L15.367654586404585,283.765L19.27121723996724,290.71L23.174779893529895,286.015L26.70057841932842,280.75L30.598894348894348,281.56L34.37653562653563,273.245L38.28009828009828,266.9L42.05773955773956,278.725L45.96130221130221,280.395L49.86486486486487,291.03L53.64250614250615,279.6L57.551315520065515,287.185L61.328956797706795,283.01L65.23251945126945,287.9L69.1360821048321,284.57L72.66188063063062,281.075L76.56019656019656,288.16L80.33783783783784,281.955L84.2414004914005,286.73L88.01904176904176,281.345L91.92260442260442,282.185L95.82616707616708,283.9L99.60380835380836,281.455L103.51261773136774,285.86L107.29025900900902,279.49L111.19382166257166,279.055L115.09738431613431,282.22L118.62318284193283,283.445L122.52149877149877,271.8L126.29914004914005,283.855L130.20270270270268,283.18L133.98034398034397,289.765L137.88390663390663,281.69L141.7874692874693,280.305L145.5651105651106,279.67L149.47391994266994,284.25L153.25156122031123,273.05L157.15512387387386,273.835L161.05868652743652,278.69L164.71040642915642,276.27L168.60872235872236,273.845L172.38636363636365,277.835L176.28992628992629,278.675L180.06756756756758,275.93L183.9711302211302,276.795L187.87469287469287,281.825L191.65233415233416,277.125L195.56114352989354,275.15L199.3387848075348,274.33L203.24234746109747,273.43L207.14591011466013,276.02L210.67170864045866,273.745L214.5700245700246,273.64L218.34766584766584,275.67L222.25122850122852,273.195L226.02886977886976,277.615L229.93243243243245,277.285L233.8359950859951,273.095L237.61363636363637,257.53499999999997L241.52244574119575,267.52L245.30008701883702,272.78L249.20364967239968,271.005L253.10721232596234,274.5L256.63301085176084,267.32L260.5313267813268,273.88L264.3089680589681,269.56L268.21253071253074,256.205L271.99017199017203,267.765L275.89373464373466,275.815L279.7972972972973,275L283.5749385749386,268.935L287.48374795249794,261.035L291.26138923013923,263.845L295.16495188370186,273.805L299.06851453726455,265.7L302.59431306306305,264.445L306.492628992629,266.73L310.27027027027026,268.105L314.17383292383295,260.405L317.95147420147424,262.165L321.8550368550369,260.045L325.7585995085995,266.425L329.5362407862408,271.92L333.44505016380015,269.79L337.22269144144144,278.165L341.1262540950041,270.31L345.02981674856676,270.685L348.68153665028666,266.325L352.57985257985257,278.65L356.35749385749386,275.78499999999997L360.2610565110565,264.275L364.0386977886978,262.47L367.9422604422604,269.09000000000003L371.8458230958231,275.96L375.62346437346434,271.2L379.53227375102375,271.245L383.30991502866505,272.42L387.2134776822277,275.08L391.1170403357903,277.7L394.64283886158887,271.45L398.5411547911548,271.28000000000003L402.3187960687961,274.6L406.2223587223587,265.475L410,271.025" data-legend="fortran" style="stroke: rgb(44, 160, 44); fill: none;"></path><path class="line" d="M3.9035626535626538,238.03L7.681203931203931,269.85L11.590013308763309,215.1L15.367654586404585,198.51L19.27121723996724,228.76L23.174779893529895,274.82L26.70057841932842,256.68L30.598894348894348,237.76000000000002L34.37653562653563,210.175L38.28009828009828,223.34L42.05773955773956,248.32999999999998L45.96130221130221,227.61L49.86486486486487,228.20999999999998L53.64250614250615,226.555L57.551315520065515,194.89000000000001L61.328956797706795,203.29L65.23251945126945,232.89L69.1360821048321,198.57999999999998L72.66188063063062,212.94L76.56019656019656,218.07999999999998L80.33783783783784,187.92000000000002L84.2414004914005,203.55L88.01904176904176,197.79500000000002L91.92260442260442,223.3L95.82616707616708,210.62L99.60380835380836,187.18L103.51261773136774,188.985L107.29025900900902,191.065L111.19382166257166,217.45L115.09738431613431,200.43L118.62318284193283,184.10500000000002L122.52149877149877,162.08L126.29914004914005,143.42L130.20270270270268,161.445L133.98034398034397,178.6L137.88390663390663,196.07L141.7874692874693,169.79999999999998L145.5651105651106,142.18000000000004L149.47391994266994,154.16L153.25156122031123,143.01L157.15512387387386,151.01500000000001L161.05868652743652,148.84000000000003L164.71040642915642,166.375L168.60872235872236,155.94500000000002L172.38636363636365,179.35500000000002L176.28992628992629,183.265L180.06756756756758,183.07L183.9711302211302,202.315L187.87469287469287,179.06L191.65233415233416,163.06L195.56114352989354,170.43499999999997L199.3387848075348,178.88L203.24234746109747,190.935L207.14591011466013,180.07999999999998L210.67170864045866,180.73L214.5700245700246,181.23L218.34766584766584,197.40499999999997L222.25122850122852,200.46500000000003L226.02886977886976,216.25L229.93243243243245,206.82999999999998L233.8359950859951,191.77499999999998L237.61363636363637,161.98L241.52244574119575,164.24L245.30008701883702,167.44500000000002L249.20364967239968,175.46499999999997L253.10721232596234,176.92000000000002L256.63301085176084,171.15L260.5313267813268,173.67000000000002L264.3089680589681,148.07500000000002L268.21253071253074,172.805L271.99017199017203,171.335L275.89373464373466,171.29999999999998L279.7972972972973,178.52L283.5749385749386,147.48999999999998L287.48374795249794,127.73000000000002L291.26138923013923,130.525L295.16495188370186,152.535L299.06851453726455,178.205L302.59431306306305,157.51000000000002L306.492628992629,174.91500000000002L310.27027027027026,174.52499999999998L314.17383292383295,198.66500000000002L317.95147420147424,192.5L321.8550368550369,192.82L325.7585995085995,171.755L329.5362407862408,156.175L333.44505016380015,174.755L337.22269144144144,177.77L341.1262540950041,191.23000000000002L345.02981674856676,186.11L348.68153665028666,173.04000000000002L352.57985257985257,159.23499999999999L356.35749385749386,166.28L360.2610565110565,207.635L364.0386977886978,207.555L367.9422604422604,196.28500000000003L371.8458230958231,201.085L375.62346437346434,194.555L379.53227375102375,197.40499999999997L383.30991502866505,195.76999999999998L387.2134776822277,193.72500000000002L391.1170403357903,195.11L394.64283886158887,206.31L398.5411547911548,209.565L402.3187960687961,202.24L406.2223587223587,215.815L410,220.82500000000002" data-legend="haskell" style="stroke: rgb(214, 39, 40); fill: none;"></path><path class="line" d="M3.9035626535626538,300L7.681203931203931,300L11.590013308763309,300L15.367654586404585,300L19.27121723996724,300L23.174779893529895,300L26.70057841932842,300L30.598894348894348,300L34.37653562653563,300L38.28009828009828,300L42.05773955773956,300L45.96130221130221,300L49.86486486486487,300L53.64250614250615,300L57.551315520065515,300L61.328956797706795,300L65.23251945126945,300L69.1360821048321,300L72.66188063063062,300L76.56019656019656,300L80.33783783783784,300L84.2414004914005,300L88.01904176904176,299.19L91.92260442260442,300L95.82616707616708,300L99.60380835380836,300L103.51261773136774,300L107.29025900900902,300L111.19382166257166,300L115.09738431613431,300L118.62318284193283,300L122.52149877149877,300L126.29914004914005,300L130.20270270270268,300L133.98034398034397,300L137.88390663390663,300L141.7874692874693,300L145.5651105651106,300L149.47391994266994,300L153.25156122031123,300L157.15512387387386,299.58L161.05868652743652,297.635L164.71040642915642,298.54L168.60872235872236,300L172.38636363636365,300L176.28992628992629,300L180.06756756756758,298.285L183.9711302211302,300L187.87469287469287,299.63L191.65233415233416,299.35L195.56114352989354,298.015L199.3387848075348,300L203.24234746109747,299.075L207.14591011466013,299.055L210.67170864045866,298.045L214.5700245700246,296.6L218.34766584766584,293.845L222.25122850122852,296.92L226.02886977886976,296.685L229.93243243243245,296.55L233.8359950859951,297.635L237.61363636363637,293.9L241.52244574119575,296.95L245.30008701883702,296.155L249.20364967239968,289.645L253.10721232596234,292.975L256.63301085176084,293.185L260.5313267813268,289.705L264.3089680589681,287.55L268.21253071253074,285.305L271.99017199017203,274.93L275.89373464373466,261.185L279.7972972972973,272.355L283.5749385749386,249.73L287.48374795249794,254.005L291.26138923013923,246.865L295.16495188370186,231.42000000000002L299.06851453726455,250.29500000000002L302.59431306306305,254.91L306.492628992629,248.42000000000002L310.27027027027026,233.57L314.17383292383295,238.26L317.95147420147424,247.63L321.8550368550369,249.515L325.7585995085995,255.97L329.5362407862408,264.835L333.44505016380015,262.1L337.22269144144144,263.135L341.1262540950041,258.975L345.02981674856676,261.605L348.68153665028666,255.18L352.57985257985257,260.775L356.35749385749386,251.05L360.2610565110565,240.98L364.0386977886978,251.71L367.9422604422604,238.69L371.8458230958231,257.18L375.62346437346434,251.675L379.53227375102375,254.19L383.30991502866505,245.63L387.2134776822277,242.10000000000002L391.1170403357903,248.535L394.64283886158887,252.63L398.5411547911548,254.43L402.3187960687961,254.41L406.2223587223587,257.90999999999997L410,245.695" data-legend="rust" style="stroke: rgb(148, 103, 189); fill: none;"></path></g></g><g transform="translate(20, 150)"><text transform="rotate(-90)" x="-50" y="0" dy="1em" class="axis-label y-axis-label" style="text-anchor: middle; font-weight: bold;">% of Stack Overflow questions that month</text></g><g class="legend" transform="translate(530, 30)" style="font-size: 12px;"><text class="legend-title" style="font-weight: bold;">Tag</text><g class="legend-items" transform="translate(0,20)"><text y="0em" x="1em">numpy</text><text y="1em" x="1em">haskell</text><text y="2em" x="1em">rust</text><text y="3em" x="1em">fortran</text><text y="4em" x="1em">julia-lang</text><circle cy="-0.25em" cx="0" r="0.4em" style="fill: rgb(31, 119, 180);"></circle><circle cy="0.75em" cx="0" r="0.4em" style="fill: rgb(214, 39, 40);"></circle><circle cy="1.75em" cx="0" r="0.4em" style="fill: rgb(148, 103, 189);"></circle><circle cy="2.75em" cx="0" r="0.4em" style="fill: rgb(44, 160, 44);"></circle><circle cy="3.75em" cx="0" r="0.4em" style="fill: rgb(255, 127, 14);"></circle></g><rect class="legend-box"></rect></g></svg>
            