
                <svg id="trend-chart" width="660" height="400" title="Stack Overflow Trends Chart" version="1.1" xmlns="http://www.w3.org/2000/svg"><g></g><g class="chart-area" transform="translate(100, 20)"><g transform="translate(0,300)" fill="none" font-size="10" font-family="sans-serif" text-anchor="middle"><path class="domain" stroke="#000" d="M0.5,6V0.5H410.5V6"></path><g class="tick" opacity="1" transform="translate(19.27121723996724,0)"><line stroke="#000" y2="6" x1="0.5" x2="0.5"></line><text fill="#000" y="9" x="0.5" dy="0.71em" style="font-size: 12px;">2009</text></g><g class="tick" opacity="1" transform="translate(65.23251945126945,0)"><line stroke="#000" y2="6" x1="0.5" x2="0.5"></line><text fill="#000" y="9" x="0.5" dy="0.71em" style="font-size: 12px;">2010</text></g><g class="tick" opacity="1" transform="translate(111.19382166257166,0)"><line stroke="#000" y2="6" x1="0.5" x2="0.5"></line><text fill="#000" y="9" x="0.5" dy="0.71em" style="font-size: 12px;">2011</text></g><g class="tick" opacity="1" transform="translate(157.15512387387386,0)"><line stroke="#000" y2="6" x1="0.5" x2="0.5"></line><text fill="#000" y="9" x="0.5" dy="0.71em" style="font-size: 12px;">2012</text></g><g class="tick" opacity="1" transform="translate(203.24234746109747,0)"><line stroke="#000" y2="6" x1="0.5" x2="0.5"></line><text fill="#000" y="9" x="0.5" dy="0.71em" style="font-size: 12px;">2013</text></g><g class="tick" opacity="1" transform="translate(249.20364967239968,0)"><line stroke="#000" y2="6" x1="0.5" x2="0.5"></line><text fill="#000" y="9" x="0.5" dy="0.71em" style="font-size: 12px;">2014</text></g><g class="tick" opacity="1" transform="translate(295.16495188370186,0)"><line stroke="#000" y2="6" x1="0.5" x2="0.5"></line><text fill="#000" y="9" x="0.5" dy="0.71em" style="font-size: 12px;">2015</text></g><g class="tick" opacity="1" transform="translate(341.1262540950041,0)"><line stroke="#000" y2="6" x1="0.5" x2="0.5"></line><text fill="#000" y="9" x="0.5" dy="0.71em" style="font-size: 12px;">2016</text></g><g class="tick" opacity="1" transform="translate(387.2134776822277,0)"><line stroke="#000" y2="6" x1="0.5" x2="0.5"></line><text fill="#000" y="9" x="0.5" dy="0.71em" style="font-size: 12px;">2017</text></g></g><g class="grid-lines" transform="translate(0,300)" fill="none" font-size="10" font-family="sans-serif" text-anchor="middle"><path class="domain" stroke="#000" d="M0.5,-300V0.5H410.5V-300"></path><g class="tick" opacity="1" transform="translate(19.27121723996724,0)"><line stroke="#000" y2="-300" x1="0.5" x2="0.5" style="stroke: #ccc; fill: none;"></line></g><g class="tick" opacity="1" transform="translate(65.23251945126945,0)"><line stroke="#000" y2="-300" x1="0.5" x2="0.5" style="stroke: #ccc; fill: none;"></line></g><g class="tick" opacity="1" transform="translate(111.19382166257166,0)"><line stroke="#000" y2="-300" x1="0.5" x2="0.5" style="stroke: #ccc; fill: none;"></line></g><g class="tick" opacity="1" transform="translate(157.15512387387386,0)"><line stroke="#000" y2="-300" x1="0.5" x2="0.5" style="stroke: #ccc; fill: none;"></line></g><g class="tick" opacity="1" transform="translate(203.24234746109747,0)"><line stroke="#000" y2="-300" x1="0.5" x2="0.5" style="stroke: #ccc; fill: none;"></line></g><g class="tick" opacity="1" transform="translate(249.20364967239968,0)"><line stroke="#000" y2="-300" x1="0.5" x2="0.5" style="stroke: #ccc; fill: none;"></line></g><g class="tick" opacity="1" transform="translate(295.16495188370186,0)"><line stroke="#000" y2="-300" x1="0.5" x2="0.5" style="stroke: #ccc; fill: none;"></line></g><g class="tick" opacity="1" transform="translate(341.1262540950041,0)"><line stroke="#000" y2="-300" x1="0.5" x2="0.5" style="stroke: #ccc; fill: none;"></line></g><g class="tick" opacity="1" transform="translate(387.2134776822277,0)"><line stroke="#000" y2="-300" x1="0.5" x2="0.5" style="stroke: #ccc; fill: none;"></line></g></g><text x="205" y="360" class="axis-label x-axis-label" style="text-anchor: middle; font-weight: bold;">Year</text><g fill="none" font-size="10" font-family="sans-serif" text-anchor="end"><path class="domain" stroke="#000" d="M-6,300.5H0.5V0.5H-6"></path><g class="tick" opacity="1" transform="translate(0,300)"><line stroke="#000" x2="-6" y1="0.5" y2="0.5"></line><text fill="#000" x="-9" y="0.5" dy="0.32em" style="font-size: 12px;">0.00%</text></g><g class="tick" opacity="1" transform="translate(0,266.6666666666667)"><line stroke="#000" x2="-6" y1="0.5" y2="0.5"></line><text fill="#000" x="-9" y="0.5" dy="0.32em" style="font-size: 12px;">1.00%</text></g><g class="tick" opacity="1" transform="translate(0,233.33333333333331)"><line stroke="#000" x2="-6" y1="0.5" y2="0.5"></line><text fill="#000" x="-9" y="0.5" dy="0.32em" style="font-size: 12px;">2.00%</text></g><g class="tick" opacity="1" transform="translate(0,200)"><line stroke="#000" x2="-6" y1="0.5" y2="0.5"></line><text fill="#000" x="-9" y="0.5" dy="0.32em" style="font-size: 12px;">3.00%</text></g><g class="tick" opacity="1" transform="translate(0,166.66666666666666)"><line stroke="#000" x2="-6" y1="0.5" y2="0.5"></line><text fill="#000" x="-9" y="0.5" dy="0.32em" style="font-size: 12px;">4.00%</text></g><g class="tick" opacity="1" transform="translate(0,133.33333333333331)"><line stroke="#000" x2="-6" y1="0.5" y2="0.5"></line><text fill="#000" x="-9" y="0.5" dy="0.32em" style="font-size: 12px;">5.00%</text></g><g class="tick" opacity="1" transform="translate(0,100)"><line stroke="#000" x2="-6" y1="0.5" y2="0.5"></line><text fill="#000" x="-9" y="0.5" dy="0.32em" style="font-size: 12px;">6.00%</text></g><g class="tick" opacity="1" transform="translate(0,66.66666666666663)"><line stroke="#000" x2="-6" y1="0.5" y2="0.5"></line><text fill="#000" x="-9" y="0.5" dy="0.32em" style="font-size: 12px;">7.00%</text></g><g class="tick" opacity="1" transform="translate(0,33.333333333333314)"><line stroke="#000" x2="-6" y1="0.5" y2="0.5"></line><text fill="#000" x="-9" y="0.5" dy="0.32em" style="font-size: 12px;">8.00%</text></g><g class="tick" opacity="1" transform="translate(0,0)"><line stroke="#000" x2="-6" y1="0.5" y2="0.5"></line><text fill="#000" x="-9" y="0.5" dy="0.32em" style="font-size: 12px;">9.00%</text></g></g><g class="grid-lines" fill="none" font-size="10" font-family="sans-serif" text-anchor="end"><path class="domain" stroke="#000" d="M410,300.5H0.5V0.5H410"></path><g class="tick" opacity="1" transform="translate(0,300)"><line stroke="#000" x2="410" y1="0.5" y2="0.5" style="stroke: #ccc; fill: none;"></line></g><g class="tick" opacity="1" transform="translate(0,266.6666666666667)"><line stroke="#000" x2="410" y1="0.5" y2="0.5" style="stroke: #ccc; fill: none;"></line></g><g class="tick" opacity="1" transform="translate(0,233.33333333333331)"><line stroke="#000" x2="410" y1="0.5" y2="0.5" style="stroke: #ccc; fill: none;"></line></g><g class="tick" opacity="1" transform="translate(0,200)"><line stroke="#000" x2="410" y1="0.5" y2="0.5" style="stroke: #ccc; fill: none;"></line></g><g class="tick" opacity="1" transform="translate(0,166.66666666666666)"><line stroke="#000" x2="410" y1="0.5" y2="0.5" style="stroke: #ccc; fill: none;"></line></g><g class="tick" opacity="1" transform="translate(0,133.33333333333331)"><line stroke="#000" x2="410" y1="0.5" y2="0.5" style="stroke: #ccc; fill: none;"></line></g><g class="tick" opacity="1" transform="translate(0,100)"><line stroke="#000" x2="410" y1="0.5" y2="0.5" style="stroke: #ccc; fill: none;"></line></g><g class="tick" opacity="1" transform="translate(0,66.66666666666663)"><line stroke="#000" x2="410" y1="0.5" y2="0.5" style="stroke: #ccc; fill: none;"></line></g><g class="tick" opacity="1" transform="translate(0,33.333333333333314)"><line stroke="#000" x2="410" y1="0.5" y2="0.5" style="stroke: #ccc; fill: none;"></line></g><g class="tick" opacity="1" transform="translate(0,0)"><line stroke="#000" x2="410" y1="0.5" y2="0.5" style="stroke: #ccc; fill: none;"></line></g></g><g class="lines"><path class="line" d="M3.9035626535626538,174.673L7.681203931203931,185.204L11.590013308763309,183.19466666666668L15.367654586404585,179.8313333333333L19.27121723996724,169.07866666666666L23.174779893529895,181.92533333333333L26.70057841932842,176.775L30.598894348894348,181.8143333333333L34.37653562653563,172.45666666666665L38.28009828009828,178.62133333333333L42.05773955773956,181.35433333333333L45.96130221130221,184.97433333333333L49.86486486486487,183.03933333333333L53.64250614250615,170.51500000000001L57.551315520065515,165.83266666666668L61.328956797706795,161.202L65.23251945126945,156.46299999999997L69.1360821048321,162.34533333333331L72.66188063063062,168.83700000000002L76.56019656019656,180.17933333333332L80.33783783783784,171.83166666666668L84.2414004914005,168.86133333333333L88.01904176904176,158.475L91.92260442260442,170.51166666666666L95.82616707616708,178.40833333333336L99.60380835380836,161.57066666666665L103.51261773136774,176.114L107.29025900900902,182.01033333333334L111.19382166257166,180.07399999999998L115.09738431613431,180.079L118.62318284193283,177.44866666666667L122.52149877149877,185.01166666666666L126.29914004914005,184.3263333333333L130.20270270270268,184.7663333333333L133.98034398034397,179.89733333333334L137.88390663390663,182.33466666666666L141.7874692874693,186.96633333333335L145.5651105651106,182.26433333333333L149.47391994266994,183.0263333333333L153.25156122031123,185.09466666666668L157.15512387387386,180.78066666666666L161.05868652743652,181.04166666666666L164.71040642915642,176.47299999999998L168.60872235872236,174.66833333333332L172.38636363636365,175.45233333333334L176.28992628992629,167.72033333333334L180.06756756756758,167.56566666666666L183.9711302211302,163.93333333333334L187.87469287469287,169.11633333333333L191.65233415233416,165.432L195.56114352989354,158.01466666666667L199.3387848075348,160.31466666666668L203.24234746109747,163.269L207.14591011466013,156.43L210.67170864045866,156.27566666666667L214.5700245700246,148.6833333333333L218.34766584766584,145.9453333333333L222.25122850122852,142.61333333333334L226.02886977886976,140.32399999999998L229.93243243243245,146.90066666666664L233.8359950859951,141.977L237.61363636363637,130.904L241.52244574119575,122.94266666666664L245.30008701883702,131.83633333333336L249.20364967239968,128.94133333333332L253.10721232596234,127.11433333333335L256.63301085176084,119.63866666666667L260.5313267813268,118.07633333333334L264.3089680589681,127.52100000000002L268.21253071253074,120.36066666666667L271.99017199017203,116.09766666666667L275.89373464373466,117.12866666666667L279.7972972972973,126.17899999999997L283.5749385749386,117.588L287.48374795249794,110.97033333333334L291.26138923013923,108.59866666666665L295.16495188370186,107.98933333333332L299.06851453726455,100.68433333333334L302.59431306306305,98.84300000000002L306.492628992629,101.44566666666668L310.27027027027026,101.14899999999997L314.17383292383295,93.243L317.95147420147424,92.31000000000003L321.8550368550369,96.1823333333333L325.7585995085995,96.98533333333336L329.5362407862408,79.326L333.44505016380015,72.702L337.22269144144144,78.24166666666665L341.1262540950041,75.488L345.02981674856676,68.67133333333331L348.68153665028666,70.32499999999999L352.57985257985257,71.31633333333332L356.35749385749386,72.49433333333334L360.2610565110565,69.565L364.0386977886978,61.09166666666664L367.9422604422604,70.18800000000002L371.8458230958231,73.29933333333332L375.62346437346434,58.091333333333296L379.53227375102375,44.52733333333333L383.30991502866505,46.83100000000002L387.2134776822277,45.56833333333333L391.1170403357903,32.018666666666604L394.64283886158887,31.88633333333331L398.5411547911548,24.24000000000001L402.3187960687961,27.342333333333386L406.2223587223587,16.926333333333332L410,5.89766666666668" data-legend="python" style="stroke: rgb(31, 119, 180); fill: none;"></path><path class="line" d="M3.9035626535626538,224.253L7.681203931203931,231.65833333333333L11.590013308763309,233.879L15.367654586404585,249.38833333333332L19.27121723996724,233.094L23.174779893529895,237.69833333333332L26.70057841932842,230.04433333333333L30.598894348894348,229.30366666666666L34.37653562653563,238.96800000000002L38.28009828009828,241.34333333333333L42.05773955773956,244.882L45.96130221130221,246.40866666666668L49.86486486486487,242.66633333333334L53.64250614250615,229.817L57.551315520065515,216.67966666666666L61.328956797706795,225.24266666666668L65.23251945126945,227.608L69.1360821048321,223.713L72.66188063063062,229.15066666666667L76.56019656019656,222.09366666666665L80.33783783783784,225.34066666666666L84.2414004914005,231.62866666666665L88.01904176904176,230.238L91.92260442260442,228.82533333333333L95.82616707616708,225.43466666666666L99.60380835380836,225.19566666666665L103.51261773136774,220.89766666666668L107.29025900900902,230.63033333333334L111.19382166257166,239.70833333333334L115.09738431613431,234.92266666666666L118.62318284193283,231.53366666666665L122.52149877149877,230.16633333333334L126.29914004914005,239.88L130.20270270270268,241.311L133.98034398034397,245.84833333333333L137.88390663390663,244.08233333333334L141.7874692874693,238.40633333333332L145.5651105651106,230.67533333333333L149.47391994266994,233.56099999999998L153.25156122031123,236.3213333333333L157.15512387387386,237L161.05868652743652,236.298L164.71040642915642,233.04000000000002L168.60872235872236,232.267L172.38636363636365,239.41L176.28992628992629,241.88L180.06756756756758,245.01766666666666L183.9711302211302,245.869L187.87469287469287,236.809L191.65233415233416,230.88566666666668L195.56114352989354,229.28366666666665L199.3387848075348,237.449L203.24234746109747,239.52366666666666L207.14591011466013,234.043L210.67170864045866,234.935L214.5700245700246,232.34499999999997L218.34766584766584,236.83833333333334L222.25122850122852,238.82033333333334L226.02886977886976,243.83266666666668L229.93243243243245,241.83533333333332L233.8359950859951,232.52100000000002L237.61363636363637,224.31733333333332L241.52244574119575,220.13366666666667L245.30008701883702,230.28866666666664L249.20364967239968,235.01166666666666L253.10721232596234,230.43633333333332L256.63301085176084,227.611L260.5313267813268,232.1533333333333L264.3089680589681,239.137L268.21253071253074,244.00033333333334L271.99017199017203,247.22833333333332L275.89373464373466,246.20966666666666L279.7972972972973,235.85633333333334L283.5749385749386,227.604L287.48374795249794,227.43900000000002L291.26138923013923,233.09033333333332L295.16495188370186,236.28433333333334L299.06851453726455,234.05233333333334L302.59431306306305,232.026L306.492628992629,231.414L310.27027027027026,237.59466666666665L314.17383292383295,244.51166666666666L317.95147420147424,252.488L321.8550368550369,253.25733333333335L325.7585995085995,242.79266666666666L329.5362407862408,234.85833333333335L333.44505016380015,232.85266666666666L337.22269144144144,240.765L341.1262540950041,244.41633333333334L345.02981674856676,242.78633333333332L348.68153665028666,243.385L352.57985257985257,243.61133333333333L356.35749385749386,252.57533333333333L360.2610565110565,258.80066666666664L364.0386977886978,256.17766666666665L367.9422604422604,261.3233333333333L371.8458230958231,256.02566666666667L375.62346437346434,244.55933333333334L379.53227375102375,243.83666666666667L383.30991502866505,247.57333333333332L387.2134776822277,252.89566666666667L391.1170403357903,253.19066666666666L394.64283886158887,255.714L398.5411547911548,251.82999999999998L402.3187960687961,256.51033333333334L406.2223587223587,260.901L410,265.81966666666665" data-legend="c" style="stroke: rgb(255, 127, 14); fill: none;"></path><path class="line" d="M3.9035626535626538,299.31166666666667L7.681203931203931,299.33L11.590013308763309,298.971L15.367654586404585,298.91766666666666L19.27121723996724,299.3806666666667L23.174779893529895,299.06766666666664L26.70057841932842,298.71666666666664L30.598894348894348,298.77066666666667L34.37653562653563,298.21633333333335L38.28009828009828,297.79333333333335L42.05773955773956,298.58166666666665L45.96130221130221,298.693L49.86486486486487,299.402L53.64250614250615,298.64L57.551315520065515,299.14566666666667L61.328956797706795,298.8673333333333L65.23251945126945,299.1933333333333L69.1360821048321,298.97133333333335L72.66188063063062,298.73833333333334L76.56019656019656,299.21066666666667L80.33783783783784,298.797L84.2414004914005,299.11533333333335L88.01904176904176,298.7563333333333L91.92260442260442,298.81233333333336L95.82616707616708,298.9266666666667L99.60380835380836,298.76366666666667L103.51261773136774,299.05733333333336L107.29025900900902,298.6326666666667L111.19382166257166,298.60366666666664L115.09738431613431,298.81466666666665L118.62318284193283,298.89633333333336L122.52149877149877,298.12L126.29914004914005,298.9236666666667L130.20270270270268,298.8786666666667L133.98034398034397,299.31766666666664L137.88390663390663,298.77933333333334L141.7874692874693,298.687L145.5651105651106,298.6446666666667L149.47391994266994,298.95L153.25156122031123,298.2033333333333L157.15512387387386,298.2556666666667L161.05868652743652,298.57933333333335L164.71040642915642,298.418L168.60872235872236,298.2563333333333L172.38636363636365,298.52233333333334L176.28992628992629,298.5783333333333L180.06756756756758,298.3953333333333L183.9711302211302,298.453L187.87469287469287,298.78833333333336L191.65233415233416,298.475L195.56114352989354,298.3433333333333L199.3387848075348,298.28866666666664L203.24234746109747,298.22866666666664L207.14591011466013,298.40133333333335L210.67170864045866,298.24966666666666L214.5700245700246,298.24266666666665L218.34766584766584,298.378L222.25122850122852,298.213L226.02886977886976,298.5076666666667L229.93243243243245,298.48566666666665L233.8359950859951,298.2063333333333L237.61363636363637,297.169L241.52244574119575,297.8346666666667L245.30008701883702,298.18533333333335L249.20364967239968,298.067L253.10721232596234,298.3L256.63301085176084,297.8213333333333L260.5313267813268,298.25866666666667L264.3089680589681,297.97066666666666L268.21253071253074,297.08033333333333L271.99017199017203,297.851L275.89373464373466,298.3876666666667L279.7972972972973,298.3333333333333L283.5749385749386,297.929L287.48374795249794,297.40233333333333L291.26138923013923,297.5896666666667L295.16495188370186,298.2536666666667L299.06851453726455,297.7133333333333L302.59431306306305,297.62966666666665L306.492628992629,297.782L310.27027027027026,297.8736666666667L314.17383292383295,297.36033333333336L317.95147420147424,297.47766666666666L321.8550368550369,297.33633333333336L325.7585995085995,297.76166666666666L329.5362407862408,298.128L333.44505016380015,297.986L337.22269144144144,298.5443333333333L341.1262540950041,298.02066666666667L345.02981674856676,298.04566666666665L348.68153665028666,297.755L352.57985257985257,298.57666666666665L356.35749385749386,298.3856666666667L360.2610565110565,297.61833333333334L364.0386977886978,297.498L367.9422604422604,297.9393333333333L371.8458230958231,298.39733333333334L375.62346437346434,298.08L379.53227375102375,298.083L383.30991502866505,298.16133333333335L387.2134776822277,298.33866666666665L391.1170403357903,298.5133333333333L394.64283886158887,298.0966666666667L398.5411547911548,298.0853333333333L402.3187960687961,298.3066666666667L406.2223587223587,297.6983333333333L410,298.0683333333333" data-legend="fortran" style="stroke: rgb(44, 160, 44); fill: none;"></path><path class="line" d="M3.9035626535626538,233.20499999999998L7.681203931203931,243.71866666666665L11.590013308763309,258.8353333333333L15.367654586404585,256.42533333333336L19.27121723996724,256.635L23.174779893529895,246.46533333333332L26.70057841932842,247.052L30.598894348894348,244.82633333333334L34.37653562653563,248.524L38.28009828009828,249.474L42.05773955773956,249.036L45.96130221130221,251.235L49.86486486486487,252.2386666666667L53.64250614250615,255.20633333333333L57.551315520065515,243.684L61.328956797706795,249.90033333333332L65.23251945126945,249.39166666666665L69.1360821048321,249.06866666666667L72.66188063063062,256.09L76.56019656019656,250.25566666666668L80.33783783783784,250.67033333333333L84.2414004914005,249.503L88.01904176904176,250.46366666666665L91.92260442260442,248.45266666666666L95.82616707616708,249.431L99.60380835380836,252.29433333333333L103.51261773136774,255.92333333333335L107.29025900900902,251.75733333333335L111.19382166257166,250.428L115.09738431613431,250.37233333333333L118.62318284193283,246.36966666666666L122.52149877149877,249.34233333333333L126.29914004914005,248.75266666666667L130.20270270270268,248.305L133.98034398034397,248.05866666666665L137.88390663390663,242.58666666666667L141.7874692874693,249.96933333333334L145.5651105651106,247.587L149.47391994266994,247.485L153.25156122031123,246.157L157.15512387387386,245.75066666666666L161.05868652743652,245.902L164.71040642915642,246.11066666666667L168.60872235872236,249.63L172.38636363636365,251.596L176.28992628992629,252.58100000000002L180.06756756756758,252.309L183.9711302211302,251.87333333333333L187.87469287469287,251.401L191.65233415233416,250.43033333333332L195.56114352989354,252.81166666666667L199.3387848075348,253.792L203.24234746109747,252.04733333333334L207.14591011466013,252.368L210.67170864045866,251.69466666666665L214.5700245700246,252.81166666666667L218.34766584766584,253.899L222.25122850122852,254.064L226.02886977886976,254.70499999999998L229.93243243243245,252.111L233.8359950859951,252.53L237.61363636363637,250.45333333333332L241.52244574119575,252.09866666666665L245.30008701883702,251.37566666666666L249.20364967239968,251.962L253.10721232596234,254.39333333333332L256.63301085176084,253.507L260.5313267813268,253.78666666666666L264.3089680589681,250.428L268.21253071253074,252.90033333333332L271.99017199017203,252.72033333333331L275.89373464373466,250.50966666666665L279.7972972972973,255.13299999999998L283.5749385749386,255.69633333333334L287.48374795249794,258.51433333333335L291.26138923013923,254.597L295.16495188370186,252.00233333333335L299.06851453726455,255.951L302.59431306306305,257.467L306.492628992629,256.706L310.27027027027026,255.66066666666666L314.17383292383295,254.94933333333333L317.95147420147424,256.631L321.8550368550369,257.991L325.7585995085995,260.11266666666666L329.5362407862408,261.40133333333335L333.44505016380015,263.8353333333333L337.22269144144144,261.449L341.1262540950041,261.097L345.02981674856676,260.87733333333335L348.68153665028666,263.172L352.57985257985257,263.1413333333333L356.35749385749386,263.31066666666663L360.2610565110565,262.506L364.0386977886978,264.64033333333333L367.9422604422604,266.22833333333335L371.8458230958231,265.1243333333333L375.62346437346434,267.764L379.53227375102375,268.661L383.30991502866505,268.56166666666667L387.2134776822277,268.04333333333335L391.1170403357903,270.967L394.64283886158887,272.3793333333333L398.5411547911548,274.04766666666666L402.3187960687961,274.76233333333334L406.2223587223587,275.97333333333336L410,274.399" data-legend="ruby" style="stroke: rgb(214, 39, 40); fill: none;"></path><path class="line" d="M3.9035626535626538,298.623L7.681203931203931,300L11.590013308763309,299.743L15.367654586404585,299.7296666666667L19.27121723996724,298.348L23.174779893529895,298.3213333333333L26.70057841932842,299.35833333333335L30.598894348894348,298.156L34.37653562653563,299.74533333333335L38.28009828009828,299.4193333333333L42.05773955773956,294.833L45.96130221130221,295.27433333333335L49.86486486486487,286.14033333333333L53.64250614250615,293.3806666666667L57.551315520065515,291.96733333333333L61.328956797706795,293.0296666666667L65.23251945126945,293.0323333333333L69.1360821048321,291.034L72.66188063063062,291.16766666666666L76.56019656019656,289.4723333333333L80.33783783783784,291.198L84.2414004914005,289.49966666666666L88.01904176904176,287.2916666666667L91.92260442260442,285.383L95.82616707616708,287.331L99.60380835380836,288.9236666666667L103.51261773136774,288.49766666666665L107.29025900900902,289.43666666666667L111.19382166257166,289.6913333333333L115.09738431613431,287.277L118.62318284193283,286.268L122.52149877149877,283.661L126.29914004914005,286.03833333333336L130.20270270270268,285.31966666666665L133.98034398034397,285.24333333333334L137.88390663390663,282.0833333333333L141.7874692874693,280.36566666666664L145.5651105651106,279.8933333333333L149.47391994266994,281.725L153.25156122031123,280.58133333333336L157.15512387387386,280.557L161.05868652743652,278.55566666666664L164.71040642915642,278.26433333333335L168.60872235872236,278.467L172.38636363636365,278.60833333333335L176.28992628992629,275.6793333333333L180.06756756756758,274.15999999999997L183.9711302211302,274.68966666666665L187.87469287469287,273.70966666666664L191.65233415233416,272.17566666666664L195.56114352989354,270.22L199.3387848075348,270.54466666666667L203.24234746109747,268.67033333333336L207.14591011466013,264.48633333333333L210.67170864045866,265.3073333333333L214.5700245700246,264.98199999999997L218.34766584766584,264.90166666666664L222.25122850122852,263.32933333333335L226.02886977886976,263.45799999999997L229.93243243243245,262.981L233.8359950859951,266.014L237.61363636363637,262.59233333333333L241.52244574119575,259.2986666666667L245.30008701883702,262.24466666666666L249.20364967239968,259.1256666666667L253.10721232596234,254.428L256.63301085176084,255.529L260.5313267813268,253.887L264.3089680589681,251.94066666666666L268.21253071253074,251.78033333333332L271.99017199017203,251.21433333333334L275.89373464373466,250.39033333333333L279.7972972972973,253.13266666666667L283.5749385749386,247.29866666666666L287.48374795249794,246.678L291.26138923013923,250.258L295.16495188370186,246.567L299.06851453726455,242.13366666666667L302.59431306306305,238.22733333333332L306.492628992629,242.57266666666666L310.27027027027026,239.45733333333334L314.17383292383295,239.97899999999998L317.95147420147424,233.09233333333333L321.8550368550369,236.71666666666667L325.7585995085995,238.481L329.5362407862408,235.03333333333333L333.44505016380015,234.83033333333333L337.22269144144144,239.44166666666666L341.1262540950041,235.85133333333334L345.02981674856676,237.18233333333333L348.68153665028666,234.08100000000002L352.57985257985257,230.90033333333332L356.35749385749386,234.196L360.2610565110565,231.27533333333332L364.0386977886978,230.53166666666667L367.9422604422604,233.0353333333333L371.8458230958231,239.481L375.62346437346434,232.63133333333332L379.53227375102375,235.665L383.30991502866505,238.21966666666665L387.2134776822277,237.09666666666666L391.1170403357903,233.27433333333335L394.64283886158887,226.8383333333333L398.5411547911548,224.48499999999999L402.3187960687961,226.52433333333335L406.2223587223587,220.667L410,220.01733333333334" data-legend="r" style="stroke: rgb(148, 103, 189); fill: none;"></path><path class="line" d="M3.9035626535626538,124.17499999999998L7.681203931203931,117.97899999999998L11.590013308763309,109.86933333333332L15.367654586404585,127.59566666666669L19.27121723996724,122.61599999999999L23.174779893529895,140.88799999999998L26.70057841932842,129.603L30.598894348894348,142.31666666666666L34.37653562653563,143.40566666666666L38.28009828009828,153.53233333333333L42.05773955773956,150.85666666666665L45.96130221130221,158.02800000000002L49.86486486486487,153.22566666666665L53.64250614250615,146.30466666666666L57.551315520065515,149.25399999999996L61.328956797706795,154.7543333333333L65.23251945126945,152.9423333333333L69.1360821048321,131.84533333333331L72.66188063063062,145.87266666666667L76.56019656019656,135.50166666666667L80.33783783783784,146.75500000000002L84.2414004914005,132.81733333333335L88.01904176904176,154.0403333333333L91.92260442260442,162.764L95.82616707616708,151.99633333333333L99.60380835380836,147.91833333333332L103.51261773136774,140.38099999999997L107.29025900900902,151.02733333333333L111.19382166257166,155.34933333333333L115.09738431613431,163.049L118.62318284193283,163.42433333333332L122.52149877149877,156.40133333333333L126.29914004914005,172.061L130.20270270270268,173.12099999999998L133.98034398034397,173.94899999999998L137.88390663390663,178.30566666666667L141.7874692874693,173.09733333333332L145.5651105651106,158.70433333333332L149.47391994266994,164.24099999999996L153.25156122031123,161.38833333333332L157.15512387387386,171.07333333333332L161.05868652743652,164.35966666666664L164.71040642915642,171.19133333333332L168.60872235872236,164.458L172.38636363636365,177.92333333333335L176.28992628992629,182.787L180.06756756756758,177.81466666666665L183.9711302211302,179.891L187.87469287469287,177.62433333333334L191.65233415233416,170.22533333333334L195.56114352989354,160.37866666666665L199.3387848075348,161.8093333333333L203.24234746109747,174.186L207.14591011466013,170.25266666666667L210.67170864045866,164.19L214.5700245700246,163.1783333333333L218.34766584766584,164.94066666666666L222.25122850122852,171.64166666666665L226.02886977886976,177.78766666666667L229.93243243243245,179.29966666666667L233.8359950859951,169.67433333333332L237.61363636363637,157.26999999999998L241.52244574119575,148.0223333333333L245.30008701883702,160.28100000000003L249.20364967239968,166.01866666666663L253.10721232596234,165.50466666666668L256.63301085176084,162.793L260.5313267813268,162.7326666666667L264.3089680589681,173.256L268.21253071253074,184.84033333333332L271.99017199017203,183.28866666666664L275.89373464373466,181.54966666666667L279.7972972972973,176.772L283.5749385749386,169.76233333333332L287.48374795249794,170.01533333333333L291.26138923013923,171.25333333333333L295.16495188370186,178.10233333333332L299.06851453726455,173.4923333333333L302.59431306306305,171.91933333333333L306.492628992629,176.01533333333333L310.27027027027026,178.84433333333334L314.17383292383295,185.56733333333332L317.95147420147424,186.91666666666663L321.8550368550369,193.14166666666665L325.7585995085995,190.33733333333333L329.5362407862408,175.3853333333333L333.44505016380015,169.01933333333332L337.22269144144144,174.38299999999998L341.1262540950041,189.0486666666667L345.02981674856676,185.26100000000002L348.68153665028666,184.96066666666667L352.57985257985257,184.37566666666666L356.35749385749386,193.29833333333335L360.2610565110565,197.92766666666665L364.0386977886978,198.005L367.9422604422604,211.611L371.8458230958231,207.10933333333332L375.62346437346434,194.91166666666666L379.53227375102375,192.791L383.30991502866505,200.04466666666664L387.2134776822277,200.612L391.1170403357903,208.81599999999997L394.64283886158887,204.505L398.5411547911548,198.3743333333333L402.3187960687961,211.79566666666665L406.2223587223587,219.516L410,213.461" data-legend="c++" style="stroke: rgb(140, 86, 75); fill: none;"></path></g></g><g transform="translate(20, 150)"><text transform="rotate(-90)" x="-50" y="0" dy="1em" class="axis-label y-axis-label" style="text-anchor: middle; font-weight: bold;">% of Stack Overflow questions that month</text></g><g class="legend" transform="translate(530, 30)" style="font-size: 12px;"><text class="legend-title" style="font-weight: bold;">Tag</text><g class="legend-items" transform="translate(0,20)"><text y="0em" x="1em">python</text><text y="1em" x="1em">c++</text><text y="2em" x="1em">c</text><text y="3em" x="1em">r</text><text y="4em" x="1em">ruby</text><text y="5em" x="1em">fortran</text><circle cy="-0.25em" cx="0" r="0.4em" style="fill: rgb(31, 119, 180);"></circle><circle cy="0.75em" cx="0" r="0.4em" style="fill: rgb(140, 86, 75);"></circle><circle cy="1.75em" cx="0" r="0.4em" style="fill: rgb(255, 127, 14);"></circle><circle cy="2.75em" cx="0" r="0.4em" style="fill: rgb(148, 103, 189);"></circle><circle cy="3.75em" cx="0" r="0.4em" style="fill: rgb(214, 39, 40);"></circle><circle cy="4.75em" cx="0" r="0.4em" style="fill: rgb(44, 160, 44);"></circle></g><rect class="legend-box"></rect></g></svg>
            